<?xml version="1.0" encoding="utf-8"?>
<!-- Generator: Adobe Illustrator 27.4.1, SVG Export Plug-In . SVG Version: 6.00 Build 0)  -->
<svg version="1.1" id="Layer_1" xmlns="http://www.w3.org/2000/svg" xmlns:xlink="http://www.w3.org/1999/xlink" x="0px" y="0px"
	 viewBox="0 0 687.3 687.3" style="enable-background:new 0 0 687.3 687.3;" xml:space="preserve">
<style type="text/css">
	.st0{fill:url(#SVGID_1_);stroke:#000000;stroke-miterlimit:10;}
	.st1{fill:#C0C0C0;stroke:#000000;stroke-miterlimit:10;}
	.st2{fill:none;stroke:#000000;stroke-miterlimit:10;}
	.st3{font-family:'NexaRustSlab-Black2';}
	.st4{font-size:65.46px;}
</style>
<linearGradient id="SVGID_1_" gradientUnits="userSpaceOnUse" x1="0.5" y1="346.36" x2="686.78" y2="346.36" gradientTransform="matrix(1 0 0 -1 0 690)">
	<stop  offset="3.000015e-02" style="stop-color:#007F2F"/>
	<stop  offset="0.49" style="stop-color:#003F10"/>
	<stop  offset="0.83" style="stop-color:#231F20"/>
</linearGradient>
<circle class="st0" cx="343.6" cy="343.6" r="343.1"/>
<polygon class="st1" points="90.4,220.6 342.1,52.5 593.7,220.6 593.7,473.5 343,641 90.4,474.5 "/>
<polygon class="st1" points="162.7,248.9 523.8,248.9 343.6,559.8 "/>
<polyline class="st2" points="90.4,220.6 162.7,248.9 91.2,474.1 343.6,559.8 593.3,473.1 522.7,248.9 "/>
<polyline class="st2" points="162.7,248.9 342.1,53 522.7,248.9 593.7,220.6 "/>
<line class="st2" x1="343" y1="639.2" x2="343.6" y2="557.4"/>
<text transform="matrix(1 0 0 1 297.27 387.06)" class="st3 st4">2</text>
<text transform="matrix(1 0 0 1 342.37 387.06)" class="st3 st4">0</text>
</svg>
